<?xml version="1.0" standalone="no"?>
<!DOCTYPE svg PUBLIC "-//W3C//DTD SVG 20010904//EN"
 "http://www.w3.org/TR/2001/REC-SVG-20010904/DTD/svg10.dtd">
<svg version="1.0" xmlns="http://www.w3.org/2000/svg"
 width="980.000000pt" height="652.000000pt" viewBox="0 0 980.000000 652.000000"
 preserveAspectRatio="xMidYMid meet">
<metadata>
Created by potrace 1.15, written by Peter Selinger 2001-2017
</metadata>
<g transform="translate(0.000000,652.000000) scale(0.100000,-0.100000)"
fill="#000000" stroke="none">
<path d="M4828 6505 c-29 -9 -68 -35 -102 -66 l-56 -51 0 -793 0 -793 58 -52
c100 -91 171 -112 244 -74 18 9 61 44 95 77 l63 60 0 787 0 786 -53 46 c-29
25 -66 52 -82 61 -47 23 -114 28 -167 12z"/>
<path d="M1521 5138 c-53 -12 -123 -77 -141 -133 -20 -59 -9 -146 24 -194 50
-72 454 -488 707 -727 417 -395 416 -395 521 -373 98 21 169 108 184 225 l6
51 -69 79 c-128 145 -696 725 -861 880 -211 198 -252 219 -371 192z"/>
<path d="M8147 5140 c-54 -17 -144 -96 -421 -369 -298 -295 -559 -567 -669
-695 -65 -77 -67 -80 -67 -135 0 -67 24 -123 71 -170 67 -68 170 -84 238 -37
96 67 581 528 857 816 247 257 274 295 274 382 0 48 -26 111 -59 145 -50 52
-161 83 -224 63z"/>
<path d="M4572 3699 c-168 -20 -411 -98 -593 -188 -694 -345 -1169 -1073
-1169 -1791 0 -74 5 -151 10 -170 5 -20 29 -54 52 -77 94 -92 221 -97 314 -11
55 51 70 96 89 278 28 251 68 402 156 586 155 326 446 617 773 774 218 104
433 151 691 152 313 0 571 -69 833 -225 266 -158 487 -398 632 -686 92 -184
137 -348 165 -601 18 -165 27 -198 68 -251 60 -79 166 -111 252 -75 50 21 122
92 136 134 15 44 6 259 -16 406 -92 610 -468 1162 -1013 1487 -199 119 -447
211 -654 245 -120 19 -608 28 -726 13z"/>
<path d="M291 1849 c-111 -7 -143 -12 -180 -32 -104 -53 -137 -184 -76 -296
46 -83 75 -100 194 -112 146 -15 1444 -6 1493 10 23 7 51 28 71 54 76 94 85
149 37 243 -36 73 -76 112 -126 126 -49 13 -1223 19 -1413 7z"/>
<path d="M4814 1839 c-66 -32 -237 -269 -707 -976 l-260 -393 -1516 0 c-1870
-1 -2142 -9 -2244 -67 -39 -23 -78 -97 -85 -163 -6 -64 20 -138 63 -180 l34
-33 253 -9 c303 -10 3249 -11 3532 0 l198 7 37 41 c59 67 190 255 493 707
l286 429 263 -393 c272 -408 390 -580 491 -710 l59 -77 92 -8 c125 -10 3161
-7 3565 4 368 10 357 8 402 98 34 67 33 140 -2 216 -32 69 -68 90 -178 107
-152 24 -590 30 -2097 31 l-1543 0 -319 477 c-317 476 -496 734 -574 827 -69
83 -158 106 -243 65z"/>
<path d="M8288 1850 c-249 -6 -249 -6 -305 -99 -61 -101 -61 -173 0 -252 52
-68 73 -79 172 -89 50 -5 410 -10 802 -10 l712 0 47 58 c82 100 101 171 69
250 -22 50 -82 110 -125 123 -68 21 -901 32 -1372 19z"/>
</g>
</svg>
