<?xml version="1.0" encoding="utf-8"?>
<!-- Svg Vector Icons : http://www.onlinewebfonts.com/icon -->
<!DOCTYPE svg PUBLIC "-//W3C//DTD SVG 1.1//EN" "http://www.w3.org/Graphics/SVG/1.1/DTD/svg11.dtd">
<svg version="1.1" xmlns="http://www.w3.org/2000/svg" xmlns:xlink="http://www.w3.org/1999/xlink" x="0px" y="0px" viewBox="0 0 1000 1000" enable-background="new 0 0 1000 1000" xml:space="preserve">
<metadata> Svg Vector Icons : http://www.onlinewebfonts.com/icon </metadata>
<g><g transform="translate(0.000000,511.000000) scale(0.100000,-0.100000)"><path d="M737.5,4327.3c-213.9-42.8-427.8-196.1-534.8-388.6l-89.1-160.4l-10.7-2584.7c-7.1-1422.5,0-2652.5,10.7-2730.9c28.5-203.2,196.1-445.6,381.5-549.1l153.3-89.1l2185.4-17.8l2189-17.8l92.7-110.5c53.5-64.2,153.3-213.9,221-338.7c153.3-274.5,609.7-766.5,880.6-944.8c253.1-167.6,656-338.7,1026.8-431.4c484.8-128.3,509.8-128.3,609.6-28.5c114.1,114.1,92.7,192.5-110.5,413.6c-370.8,395.7-623.9,823.5-698.8,1172.9c-64.2,299.5-114.1,285.2,1158.7,285.2c1222.8,0,1279.8,10.7,1490.2,235.3c213.9,228.2,206.8,121.2,206.8,3033.9c0,2502.7-7.2,2673.9-67.8,2809.4c-67.8,153.3-270.9,352.9-427.8,420.7C9290.3,4359.4,994.2,4377.2,737.5,4327.3z M9340.2,4102.7c146.2-60.6,288.8-221,342.3-374.3c28.5-85.6,39.2-862.8,39.2-2673.9v-2556.2l-78.5-156.9c-96.2-185.4-213.9-278.1-406.4-320.9c-74.9-17.8-613.3-35.6-1194.3-35.6H6987.2l-82-89.1c-71.3-78.4-78.5-110.5-64.2-317.3c32.1-363.7,292.4-855.6,684.6-1290.6c89.1-103.4,164-196.1,164-206.8c0-67.8-827.2,192.5-1158.7,363.6c-320.9,167.6-837.8,673.8-1016.1,1001.8c-67.8,124.8-185.4,292.4-256.7,374.3L5126.2-2033l-2185.5,17.8c-1536.6,14.3-2210.4,28.5-2274.6,57.1c-99.8,46.3-256.7,206.8-317.3,324.4c-28.5,53.5-39.2,834.3-39.2,2709.5V3707l82,142.6c49.9,92.7,131.9,171.1,238.9,224.6l156.9,78.4H5005C8509.5,4152.6,9244,4145.5,9340.2,4102.7z"/></g></g>
</svg>