<?xml version="1.0" standalone="no"?>
<!DOCTYPE svg PUBLIC "-//W3C//DTD SVG 20010904//EN"
 "http://www.w3.org/TR/2001/REC-SVG-20010904/DTD/svg10.dtd">
<svg version="1.0" xmlns="http://www.w3.org/2000/svg"
 width="626.000000pt" height="626.000000pt" viewBox="0 0 626.000000 626.000000"
 preserveAspectRatio="xMidYMid meet">
<metadata>
Created by potrace 1.15, written by Peter Selinger 2001-2017
</metadata>
<g transform="translate(0.000000,626.000000) scale(0.100000,-0.100000)"
fill="#000000" stroke="none">
<path d="M3067 5883 c-26 -11 -44 -28 -57 -54 -19 -36 -20 -60 -20 -380 0
-325 1 -343 20 -374 54 -87 194 -84 242 6 16 31 18 63 18 372 0 316 -1 340
-20 376 -14 28 -31 43 -60 55 -50 20 -74 20 -123 -1z"/>
<path d="M887 5066 c-48 -18 -62 -29 -82 -73 -13 -26 -15 -47 -10 -82 7 -44
17 -56 293 -334 306 -307 318 -316 398 -301 47 9 99 61 107 107 13 80 2 94
-287 385 -149 151 -282 280 -296 287 -42 21 -83 25 -123 11z"/>
<path d="M5046 5065 c-55 -19 -569 -530 -598 -593 -51 -113 48 -225 169 -193
31 9 92 64 320 293 238 239 283 289 292 324 17 62 -9 133 -57 158 -45 23 -85
26 -126 11z"/>
<path d="M2880 4430 c-253 -50 -420 -122 -620 -270 -376 -278 -598 -743 -576
-1210 3 -69 8 -142 12 -162 l7 -38 145 0 145 0 -7 43 c-3 23 -9 94 -12 157
-27 489 262 939 727 1130 188 78 445 102 650 60 132 -27 175 -42 295 -101 343
-170 580 -501 635 -886 11 -75 7 -266 -7 -360 l-7 -43 145 0 145 0 7 48 c40
285 -7 590 -131 837 -82 163 -154 265 -277 388 -221 223 -479 355 -801 411
-124 22 -351 20 -475 -4z"/>
<path d="M255 3143 c-119 -19 -156 -185 -57 -258 26 -19 45 -20 400 -23 366
-3 374 -2 408 19 89 55 89 191 0 245 -29 18 -58 19 -376 20 -190 1 -358 -1
-375 -3z"/>
<path d="M5075 3144 c-81 -20 -119 -64 -119 -139 0 -58 20 -95 69 -125 31 -19
49 -20 461 -20 427 0 428 0 461 23 83 56 83 180 -1 240 -31 22 -34 22 -441 24
-225 1 -419 -1 -430 -3z"/>
<path d="M202 2420 c-45 -10 -90 -56 -103 -102 -18 -68 12 -133 78 -167 16 -8
814 -11 3001 -11 l2979 0 34 23 c106 70 77 229 -47 258 -48 11 -5895 10 -5942
-1z"/>
<path d="M113 1547 c-122 -25 -149 -181 -44 -253 l36 -24 2978 0 c2531 0 2982
2 3005 14 88 45 104 162 32 231 l-31 30 -2969 5 c-1633 3 -2986 1 -3007 -3z"/>
<path d="M104 639 c-42 -12 -92 -65 -100 -106 -13 -70 31 -145 95 -163 26 -7
980 -9 3007 -8 2852 3 2970 4 2996 21 39 27 59 63 61 110 2 55 -17 99 -56 128
l-32 24 -2970 2 c-1763 1 -2983 -2 -3001 -8z"/>
</g>
</svg>
