<svg version="1" width="1365" height="1365" viewBox="0 0 1024 1024" xmlns="http://www.w3.org/2000/svg" xmlns:bx="https://boxy-svg.com"><defs/><path d="M491 195l-1 2-2 3-2 3-1 1-1 3-3 5-2 3-1 1-1 3-3 5-3 6-4 7c-2 0-3 3-3 6l-2 2-2 3-1 1-1 3-3 5-2 3-1 1-1 3-3 5-3 6-3 4-1 1-1 2-1 2-1 2v1l-2 3-2 3-1 1-1 3-3 5c-2 2-6 10-6 14 0 2 1 2 4 3l3-1 2-1 4-1 5-2 6-1 4-1 3-1 4-1 5-1 18-2a252 252 0 0 1 65 5l15 4 2 1 4 1 4 1 4-3c0-4-4-12-6-14l-3-5-1-3-1-1-2-3-2-3v-1l-1-2-1-2-1-2-1-1-2-4-4-6-3-5-1-3-1-1-2-3-3-5-1-3-1-1-2-3-2-3c0-1-1-5-3-5l-4-7c0-3-2-5-3-6l-3-5-1-3-1-1-2-3-3-5-1-3-1-1-2-3-1-2-2-3c-3-3-14-3-16 0zm13 3l5 7 6 11 6 10a463 463 0 0 0 26 46l3 5 10 18 7 11c6 9 5 10-1 8l-31-8a225 225 0 0 0-108 9l4-9 6-10 4-8a256 256 0 0 1 10-16l6-11a198 198 0 0 0 9-15l17-31c10-18 12-20 16-20 2 0 4 1 5 3zM701 286a364 364 0 0 0-45 12l-6 2-3 1-5 1-14 4-3 1-3 1-4 1-8 2-16 5-6 2c-4 0-5 1-5 3s0 3 4 4a68 68 0 0 1 13 7 214 214 0 0 1 79 82c4 4 8 1 8-6l1-3 1-4 1-4 4-19 1-2 1-3 1-5 2-11 1-2 2-6 3-10 1-8 1-4 1-2 1-4 4-18 1-3 1-6c0-9-4-11-15-8zm11 6l-4 19-5 20a2170 2170 0 0 1-20 80c-1 2-1 2-8-10-8-13-16-24-29-37-19-18-29-25-53-39-7-3-7-4 8-8a999 999 0 0 0 52-14l35-11c16-4 19-5 22-4l2 4zM268 292c-3 3-3 4-1 13a245 245 0 0 1 3 12l1 3 1 3 1 3 2 8 1 4 1 3 2 5a182 182 0 0 0 6 21l4 15 1 4 1 3 4 15 1 3 1 4 1 3 1 5c1 6 4 11 5 11 2 0 2 0-1-10l-3-12-4-12-5-17a713 713 0 0 0-12-42l-5-19-5-20c0-4 1-4 4-5l130 32-10 6c-22 13-46 34-61 55-11 14-27 42-25 44 1 1 4-2 4-4l1-2 1-1 4-9 1-2a189 189 0 0 1 49-60l32-21c5-3 7-4 7-6 0-3-3-5-8-5l-4-1-14-4-5-1a280 280 0 0 0-39-9l-10-3-4-1-3-1-7-2-10-2a243 243 0 0 0-24-6c-2-2-7-1-10 2zM491 333l-10 1-9 1-5 1-19 4-4 1-3 1-7 3-12 4-1 1-13 6-4 3-6 3-2 1-3 3-4 3-4 3-4 4a119 119 0 0 0-23 24l-4 5-3 3-2 2-2 3c-1 1-2 2-1 3l-1 1-1 2-2 3-3 4-1 3-1 2-1 2-1 2-1 1-1 2-1 2v3l-1 2-1 3-1 2-1 2-2 5-1 7-1 3-1 3-1 5-3 24v27l3 24 1 4 1 3 1 4 4 13 1 3 1 4 2 7 1 1 1 2 1 1 1 2 1 2 1 3 3 4 2 3 1 2v1l2 3 2 3 2 3c2 0 3 2 3 2l3 5 4 5a113 113 0 0 0 24 23l4 3 3 3 4 3 12 7 13 6 1 1 12 4 7 3 3 1 4 1 19 4 4 1 10 1 9 1h15l10-1 11-1 4-1 9-1 7-2c2 0 3 0 8-3l6-2 5-1 2-1a108 108 0 0 0 25-13l6-3 2-1 3-3 4-3 4-3 5-4a105 105 0 0 0 23-23l3-5 3-3 2-4 2-2c2-2 4-5 4-8l2-1 1-2 1-2 1-1v-2l1-2 1-2 1-1 1-2 1-2 1-2 1-2v-3l1-3 1-2 1-2 1-3c1-2 5-16 4-18l1-1 1-5 1-6a311 311 0 0 0-2-66l-1-1c1-2-3-16-4-18l-1-3-1-2-1-2-1-3v-3l-1-2-1-2-1-2-1-1-1-2-1-2-1-2v-1l-1-2-1-2-2-3-2-2c0-2-1-5-3-6l-2-3-2-3-3-3-3-4-4-5a111 111 0 0 0-24-22l-4-4-3-3-4-2-2-2-4-2-1-1-2-1-3-1a116 116 0 0 0-33-15c-7-3-21-6-25-6l-4-1-10-1-10-1-8-1-7 1zm35 5a178 178 0 0 1 144 133c4 17 4 22 4 41 0 20 0 25-4 42a176 176 0 0 1-247 118 177 177 0 0 1 58-335c10-1 36 0 45 1zM691 437c-1 1 1 11 2 12l1 3 1 2 1 4 1 3 1 2 2 13 1 6 1 6 1 23a106 106 0 0 1-2 28l-1 6-2 14-1 2-1 4-1 3-1 3-1 2-1 6c0 5 0 5 3 5 2 0 5-1 9-5l5-2 2-1 2-1 2-1 4-3 8-4 4-3 5-3 6-4 7-3 4-2 3-2 2-1 3-2 4-2 4-3 2-2 11-5 4-2 3-2 2-1 3-2 2-2c2 0 8-3 9-5l2-1 4-2c4-5 2-18-3-18l-3-1-6-4-6-4-2-1-2-1-4-2-4-3-2-1-2-1-2-1-5-2c-1-2-4-3-6-4l-4-3-6-3-6-4-2-1-2-1-2-1-4-2-8-5-6-3-5-3-4-3-2-1-2-1-4-2-8-5h-8zm6 3l45 26 26 15 27 15c14 8 16 10 16 14 0 3-1 5-13 11l-18 11a149 149 0 0 1-16 9l-15 8-27 16-27 15 2-7c2-8 5-17 6-26l2-12a238 238 0 0 0 0-48l-2-13a194 194 0 0 0-9-35l3 1z"/><path d="M295 440l-5 2-3 2-2 1-2 1-4 3-5 3-16 9-4 2-2 1-2 1-6 4-6 3-4 3c-2 1-5 2-6 4l-5 2-2 1-2 1-2 1-4 3-4 2-2 1-2 1-6 4-6 4-3 1c-5 0-7 14-3 18l4 2 2 1c0 2 7 5 9 5l2 2 3 2 2 1 3 2 4 2 11 5 2 2 4 3 4 2 3 2 2 1 3 2 4 2 7 4 6 3 5 3 4 3 8 4 4 3 2 1 2 1 2 1 5 3 6 2h4v-4l-1-5-1-2-1-3v-3l-1-3-1-5-1-3-1-4-1-5-2-17a233 233 0 0 1 6-68l1-3v-3l1-2 1-3c2 0 1-8 0-10-2-1-6-1-8 1zm6 2l-2 7-8 38v46a256 256 0 0 0 10 46l-25-14-27-16a473 473 0 0 1-31-17l-18-11c-12-6-13-8-13-11 0-4 2-6 16-13l27-16 26-15 27-15 17-10 1 1zM685 596l-3 7-3 5-1 3-21 31c-3 3-22 23-27 26a353 353 0 0 1-45 32c0 2 1 3 3 4 3 2 13 4 21 6l5 1 5 1a91 91 0 0 1 19 5l3 1 17 4 4 1 3 1 4 1 7 1 7 2 3 1 4 1 3 1 5 1 16 4 6 1c1 1 4 0 7-2 2-2 3-11 1-13l-1-3-1-3-1-1c1-1-2-12-4-16a205 205 0 0 1-8-30l-2-6-1-4-1-3-1-3-1-4-2-6-2-10c-4-9-3-8-4-13l-4-12-1-3c0-7-6-12-9-9zm6 11l6 18 3 12 16 54 8 28c3 11 2 14-2 15l-131-32c-4-2-4-3 2-6a205 205 0 0 0 90-90l5-7 3 8zM307 602l-2 9a207 207 0 0 1-5 20l-2 6-1 4-2 8-2 10-2 6-1 3-1 4-1 4-1 6-2 8-1 4-1 3-1 3-1 4-1 5-2 7-1 6-1 7c0 6 0 7 2 8 3 2 19 0 21-2l5-1 12-4 4-1 2-1 3-1 15-4 5-1 14-4 3-1 3-1 5-1 7-2 7-2 6-2 6-2 11-3c5-1 6-2 6-4s-1-3-9-7l-10-5-1-1a220 220 0 0 1-52-44 279 279 0 0 1-27-41c-1-2-2-3-4-3s-3 1-3 3zm10 10a217 217 0 0 0 93 87c-1 1-19 7-36 11l-18 6a2598 2598 0 0 1-75 18c-3-1-2-6 5-33l7-30 8-34 8-32 1-3 7 10zM566 704l-5 1-5 2-3 1-4 1-3 1-9 2-10 1-6 1-23 1a126 126 0 0 1-29-2l-22-4-3-1-4-1-9-2h-8v4l1 5 1 3 1 2 1 1 2 3 3 4 1 4 1 1 2 3 2 3v1l1 2 2 3 2 2 5 10 3 4 1 4 1 1 2 3 3 4 1 4 1 1 2 3 2 2c0 2 1 5 3 6l3 7 4 6 3 4 1 4 1 1 2 3 3 4 1 4 1 1 2 3 1 2 2 3c3 3 13 3 16 0l1-2 2-3 2-3 1-1 1-4 3-4 2-3 1-1 1-4 3-4 3-6 4-7c2-1 3-4 3-5l2-3 2-3 1-1 1-4 3-4 2-3 1-1 1-4 3-4 5-10 2-2 2-3 1-2v-1l2-3 2-3 1-1 1-4 3-4c2-2 6-10 6-13l-2-5c-2-2-7-3-7-1zm5 6l-19 35a3806 3806 0 0 0-25 44l-18 31c-8 14-12 14-20 0l-19-33-15-26a662 662 0 0 0-23-40c-5-8-6-14-4-14l5 1c7 3 24 7 35 8 15 3 47 2 63 0l35-8c4-2 5-2 5 2z"/><text x="312" y="816" fill="#333" font-family="Ubuntu" font-size="100" font-weight="700" white-space="pre"></text><text x="298" y="786" fill="#333" font-family="sans-serif" font-size="119" white-space="pre"></text><text x="156" y="992" fill="#333" font-family="sans-serif" font-size="200" font-weight="700" white-space="pre">16 DAY</text></svg>