<?xml version="1.0" standalone="no"?>
<!DOCTYPE svg PUBLIC "-//W3C//DTD SVG 20010904//EN"
 "http://www.w3.org/TR/2001/REC-SVG-20010904/DTD/svg10.dtd">
<svg version="1.0" xmlns="http://www.w3.org/2000/svg"
 width="1024.000000pt" height="1024.000000pt" viewBox="0 0 1024.000000 1024.000000"
 preserveAspectRatio="xMidYMid meet">
<metadata>
Created by potrace 1.15, written by Peter Selinger 2001-2017
</metadata>
<g transform="translate(0.000000,1024.000000) scale(0.100000,-0.100000)"
fill="#000000" stroke="none">
<path d="M4910 8292 c-8 -9 -14 -21 -12 -25 1 -5 -6 -17 -18 -27 -11 -9 -20
-22 -20 -29 0 -6 -4 -11 -9 -11 -5 0 -12 -16 -15 -35 -4 -20 -16 -41 -26 -48
-11 -6 -20 -17 -20 -24 0 -7 -4 -13 -9 -13 -5 0 -12 -16 -15 -35 -4 -19 -15
-40 -25 -47 -14 -11 -26 -30 -36 -58 -12 -36 -27 -62 -39 -66 -14 -6 -29 -39
-27 -61 1 -7 -7 -18 -19 -25 -11 -7 -20 -18 -20 -25 0 -7 -4 -13 -9 -13 -5 0
-12 -16 -15 -35 -4 -20 -16 -41 -26 -48 -11 -6 -20 -17 -20 -24 0 -7 -4 -13
-9 -13 -5 0 -12 -16 -15 -35 -4 -19 -15 -40 -25 -47 -10 -7 -26 -32 -36 -55
-10 -24 -22 -43 -27 -43 -4 0 -8 -7 -8 -15 0 -8 -4 -15 -10 -15 -5 0 -10 -9
-10 -20 0 -11 -4 -20 -10 -20 -5 0 -7 -6 -4 -14 3 -9 -3 -20 -15 -28 -12 -7
-21 -18 -21 -25 0 -7 -4 -13 -9 -13 -5 0 -12 -16 -15 -35 -4 -19 -15 -40 -24
-47 -27 -20 -64 -102 -60 -134 2 -25 8 -29 36 -32 18 -2 32 1 32 7 0 6 11 11
24 11 14 0 28 4 31 10 3 5 28 12 56 16 27 4 52 11 55 15 3 5 21 9 40 9 19 0
34 5 34 10 0 6 20 10 44 10 24 0 46 4 48 9 2 5 81 14 176 19 179 11 508 -1
526 -19 6 -5 27 -9 48 -9 21 0 38 -4 38 -9 0 -5 17 -11 38 -14 75 -11 152 -31
152 -39 0 -4 10 -8 23 -8 13 0 28 -5 34 -11 6 -6 26 -9 44 -7 29 3 34 7 37 32
4 32 -33 114 -60 134 -9 7 -20 28 -24 47 -3 19 -10 35 -15 35 -5 0 -9 6 -9 13
0 7 -9 18 -21 25 -12 8 -18 19 -15 28 3 8 1 14 -4 14 -6 0 -10 9 -10 20 0 11
-4 20 -10 20 -5 0 -10 7 -10 15 0 8 -4 15 -8 15 -5 0 -17 19 -27 43 -10 23
-26 48 -36 55 -10 7 -21 28 -25 47 -3 19 -10 35 -15 35 -5 0 -9 6 -9 13 0 7
-9 18 -20 24 -10 7 -22 28 -26 48 -3 19 -10 35 -15 35 -5 0 -9 5 -9 11 0 7 -9
20 -20 29 -12 10 -20 22 -19 26 3 18 -14 53 -27 58 -12 4 -27 30 -39 66 -10
28 -22 47 -36 58 -10 7 -21 28 -25 47 -3 19 -10 35 -15 35 -5 0 -9 6 -9 13 0
7 -9 18 -20 24 -10 7 -22 28 -26 48 -3 19 -10 35 -15 35 -5 0 -9 6 -9 13 0 7
-9 19 -19 27 -11 7 -17 18 -14 23 3 5 -4 17 -16 28 -27 26 -138 27 -161 1z
m133 -34 c14 -18 35 -51 47 -73 12 -22 39 -69 60 -105 21 -36 47 -81 58 -100
62 -110 91 -159 115 -197 15 -24 27 -45 27 -47 0 -2 27 -50 60 -106 33 -56 60
-103 60 -106 0 -2 15 -28 34 -57 33 -52 42 -67 100 -172 16 -27 46 -80 67
-117 54 -92 52 -101 -12 -78 -54 20 -218 61 -309 78 -176 33 -457 43 -602 21
-142 -21 -333 -61 -403 -85 -38 -13 -71 -24 -72 -24 -10 0 3 31 36 88 21 37
48 83 58 102 11 19 32 57 47 84 15 27 43 73 62 103 18 29 34 55 34 57 0 3 27
50 60 106 33 56 60 104 60 106 0 2 12 23 27 47 31 48 64 106 175 302 103 181
121 205 158 205 21 0 36 -9 53 -32z"/>
<path d="M7005 7385 c-33 -8 -98 -26 -145 -40 -47 -15 -103 -31 -125 -37 -22
-5 -48 -14 -57 -19 -10 -5 -27 -9 -37 -9 -11 0 -22 -4 -25 -9 -4 -5 -29 -12
-56 -16 -27 -4 -52 -11 -56 -16 -3 -5 -18 -9 -35 -9 -16 0 -37 -4 -47 -9 -25
-13 -121 -41 -143 -41 -10 0 -21 -4 -24 -10 -3 -5 -19 -10 -34 -10 -15 0 -31
-4 -36 -8 -6 -5 -41 -17 -80 -26 -83 -21 -133 -36 -160 -47 -11 -4 -40 -12
-65 -16 -38 -7 -45 -12 -48 -34 -3 -22 3 -29 35 -43 63 -29 88 -41 93 -46 3
-3 21 -14 40 -24 119 -64 293 -200 420 -326 75 -74 147 -150 161 -168 13 -19
33 -46 45 -60 44 -57 165 -242 158 -242 -4 0 1 -9 11 -20 38 -42 75 -12 75 60
0 16 5 32 10 35 6 3 10 17 10 31 0 13 4 32 9 42 11 22 41 160 41 190 0 12 5
22 10 22 6 0 10 14 10 30 0 17 4 38 9 48 12 21 26 91 23 115 -1 9 2 17 6 17 4
0 14 28 21 63 7 34 19 79 27 100 8 20 14 55 14 77 0 22 5 40 10 40 6 0 10 9
10 20 0 11 4 28 9 38 13 25 41 153 41 184 0 15 5 30 10 33 6 3 10 30 10 59 0
84 -39 106 -145 81z m113 -68 c2 -13 -16 -98 -39 -188 -22 -90 -45 -180 -49
-199 -4 -19 -37 -152 -73 -295 -36 -143 -78 -313 -93 -378 -16 -65 -32 -123
-37 -130 -9 -14 -5 -20 -77 101 -77 129 -164 237 -295 367 -182 182 -281 256
-529 391 -70 38 -69 39 79 79 55 15 152 42 215 61 149 45 196 58 305 88 95 26
201 56 350 101 160 47 198 54 220 40 11 -7 21 -24 23 -38z"/>
<path d="M2679 7321 c-33 -34 -34 -42 -13 -131 9 -36 18 -77 21 -92 3 -16 9
-28 14 -28 5 0 9 -13 9 -28 0 -16 3 -32 7 -36 4 -3 8 -14 10 -24 9 -59 16 -82
24 -82 5 0 9 -16 9 -35 0 -19 4 -35 8 -35 5 0 14 -24 19 -52 6 -29 17 -71 23
-93 6 -22 14 -52 17 -67 3 -16 9 -28 14 -28 5 0 9 -10 9 -22 0 -28 30 -140 41
-153 5 -5 9 -21 9 -35 0 -15 3 -30 7 -34 7 -6 22 -63 40 -148 3 -16 9 -28 14
-28 5 0 9 -16 9 -35 0 -19 4 -35 9 -35 5 0 12 -21 15 -47 9 -61 33 -113 51
-113 19 0 20 -4 -14 103 -16 51 -31 101 -34 112 -3 11 -19 70 -36 130 -18 61
-39 135 -48 165 -8 30 -26 91 -39 135 -22 74 -64 219 -83 290 -5 17 -30 102
-55 190 -30 102 -46 175 -44 200 3 38 5 40 38 43 37 4 1300 -306 1300 -319 0
-4 -46 -33 -101 -64 -215 -122 -455 -335 -610 -541 -110 -146 -264 -423 -245
-441 9 -10 36 18 36 38 0 11 5 19 10 19 6 0 10 4 10 10 0 17 34 90 42 90 5 0
8 7 8 16 0 22 99 170 220 329 19 26 237 244 271 271 65 53 260 185 319 216 51
27 66 40 68 59 3 28 -28 49 -74 49 -13 0 -32 4 -42 10 -15 8 -56 19 -142 36
-14 3 -34 9 -45 14 -22 9 -191 49 -240 57 -16 2 -39 8 -50 13 -11 5 -58 16
-105 25 -47 9 -93 21 -102 26 -10 5 -28 9 -41 9 -13 0 -27 3 -31 8 -4 4 -33
12 -64 19 -31 6 -75 16 -97 23 -56 16 -110 29 -177 43 -31 7 -60 15 -64 20
-19 18 -76 6 -105 -22z"/>
<path d="M4905 6910 c-3 -5 -46 -10 -95 -10 -49 0 -92 -4 -95 -10 -3 -5 -24
-10 -46 -10 -42 0 -161 -26 -191 -41 -10 -5 -26 -9 -36 -9 -10 0 -22 -4 -28
-8 -5 -5 -38 -17 -74 -27 -81 -22 -120 -38 -120 -47 0 -5 -4 -8 -10 -8 -15 0
-125 -53 -128 -62 -2 -5 -23 -17 -46 -28 -24 -10 -48 -26 -55 -34 -8 -9 -17
-14 -21 -11 -5 3 -18 -8 -30 -25 -12 -16 -28 -30 -36 -30 -9 0 -27 -14 -41
-31 -15 -17 -34 -34 -44 -37 -26 -10 -199 -181 -199 -196 0 -8 -15 -27 -34
-44 -19 -16 -37 -39 -40 -50 -4 -12 -16 -24 -27 -27 -10 -4 -19 -15 -19 -26 0
-10 -9 -24 -19 -31 -10 -6 -17 -18 -14 -25 3 -7 0 -13 -6 -13 -6 0 -11 -9 -11
-21 0 -12 -8 -23 -19 -26 -12 -3 -21 -17 -26 -39 -3 -19 -10 -34 -15 -34 -6 0
-10 -9 -10 -20 0 -11 -4 -20 -10 -20 -5 0 -10 -7 -10 -15 0 -8 -5 -15 -11 -15
-6 0 -8 -7 -5 -15 3 -9 -1 -18 -9 -21 -10 -4 -13 -14 -9 -30 4 -15 2 -24 -5
-24 -6 0 -11 -11 -11 -25 0 -14 -4 -25 -10 -25 -5 0 -10 -8 -10 -19 0 -10 -7
-34 -15 -54 -8 -19 -16 -49 -17 -66 -1 -17 -6 -31 -10 -31 -4 0 -8 -15 -8 -33
0 -18 -4 -37 -9 -42 -10 -11 -13 -36 -31 -246 -9 -103 -9 -168 0 -270 18 -211
21 -233 31 -243 5 -6 9 -22 9 -36 0 -15 3 -30 7 -34 4 -4 9 -19 10 -34 4 -33
34 -123 45 -136 4 -6 8 -18 8 -28 0 -10 4 -26 9 -36 16 -28 24 -56 22 -69 -1
-7 3 -13 9 -13 5 0 10 -7 10 -15 0 -8 5 -15 10 -15 6 0 10 -9 10 -20 0 -11 4
-20 10 -20 5 0 12 -15 15 -34 5 -22 14 -36 26 -39 11 -3 19 -14 19 -26 0 -12
5 -21 11 -21 5 0 7 -5 4 -11 -4 -6 2 -17 14 -25 12 -8 21 -23 21 -33 0 -10 11
-23 25 -29 14 -6 25 -19 25 -27 0 -9 16 -29 35 -46 19 -17 35 -37 35 -44 0
-16 180 -195 196 -195 7 0 26 -16 43 -35 17 -19 37 -35 45 -35 7 0 21 -11 30
-25 10 -14 27 -30 39 -36 45 -21 110 -58 116 -66 8 -11 114 -63 129 -63 7 0
12 -3 12 -8 0 -9 39 -25 120 -47 36 -10 69 -22 74 -27 6 -4 18 -8 28 -8 10 0
26 -4 36 -9 30 -15 149 -41 191 -41 22 0 43 -4 46 -10 3 -5 46 -10 95 -10 49
0 92 -4 95 -10 8 -13 142 -13 150 0 3 6 48 10 100 10 52 0 97 4 100 10 3 6 23
10 44 10 21 0 60 7 87 15 27 8 59 15 72 15 21 0 31 3 79 28 12 7 40 15 63 18
22 4 43 11 46 15 3 5 13 9 22 9 19 0 205 91 210 103 2 4 23 16 46 27 24 10 48
26 55 34 8 9 17 14 21 11 4 -2 19 9 34 25 14 17 31 30 36 30 6 0 24 16 41 35
17 19 37 35 44 35 17 0 195 177 195 194 0 6 16 25 35 41 19 17 35 35 35 41 0
6 11 21 25 34 14 13 25 29 25 36 0 7 8 19 18 26 20 14 37 47 41 78 0 6 8 10
16 10 8 0 15 9 15 20 0 11 5 20 11 20 6 0 9 7 5 15 -3 8 -1 15 4 15 6 0 10 9
10 20 0 11 5 20 10 20 6 0 10 7 10 15 0 8 5 15 10 15 6 0 10 9 10 20 0 11 5
20 11 20 6 0 9 9 6 20 -3 11 -1 23 4 26 5 3 9 16 9 30 0 13 5 24 10 24 6 0 10
11 10 23 0 13 3 27 7 31 16 16 51 155 45 179 -1 4 2 7 8 7 5 0 10 24 10 54 0
32 5 56 12 58 16 6 16 540 0 546 -7 2 -12 26 -12 58 0 30 -5 54 -10 54 -6 0
-9 3 -8 8 6 23 -29 162 -45 178 -4 4 -7 18 -7 31 0 12 -4 23 -10 23 -5 0 -10
11 -10 24 0 14 -4 27 -9 30 -5 3 -7 15 -4 26 3 11 0 20 -6 20 -6 0 -11 9 -11
20 0 11 -4 20 -10 20 -5 0 -10 7 -10 15 0 8 -4 15 -10 15 -5 0 -10 9 -10 20 0
11 -4 20 -10 20 -5 0 -7 7 -4 15 4 8 1 15 -5 15 -6 0 -11 7 -11 16 0 9 -8 23
-17 30 -10 7 -18 16 -19 21 -2 20 -19 49 -36 61 -10 7 -18 20 -18 29 0 8 -11
24 -25 35 -14 11 -25 25 -25 31 0 7 -16 25 -35 42 -19 16 -35 35 -35 41 0 16
-178 194 -194 194 -8 0 -27 16 -43 35 -17 19 -35 35 -40 35 -5 0 -22 13 -38
30 -15 16 -31 27 -35 25 -4 -3 -15 4 -25 15 -10 11 -24 20 -32 20 -7 0 -13 5
-13 10 0 6 -9 10 -20 10 -10 0 -23 6 -27 13 -11 18 -187 101 -258 122 -33 10
-69 21 -80 26 -63 25 -206 59 -248 59 -20 0 -39 5 -42 10 -3 6 -48 10 -100 10
-52 0 -97 4 -100 10 -3 6 -37 10 -75 10 -38 0 -72 -4 -75 -10z m350 -52 c130
-23 275 -61 340 -87 290 -120 477 -242 657 -429 225 -234 377 -511 447 -812
39 -171 45 -225 45 -415 0 -190 -6 -244 -45 -415 -101 -437 -389 -838 -774
-1077 -99 -62 -281 -153 -306 -153 -8 0 -19 -4 -25 -8 -19 -18 -190 -63 -349
-93 -143 -27 -484 -15 -635 21 -138 34 -176 44 -185 50 -5 3 -30 13 -55 20
-25 8 -87 33 -139 57 -469 216 -830 648 -959 1148 -26 102 -31 126 -43 215
-24 175 -13 463 23 605 23 96 32 125 59 207 85 260 277 550 485 734 294 259
632 407 1014 444 104 10 363 3 445 -12z"/>
<path d="M6906 5872 c-5 -9 16 -108 27 -118 4 -4 7 -18 7 -31 0 -12 5 -23 10
-23 6 0 10 -16 10 -35 0 -19 4 -35 9 -35 5 0 9 -10 9 -22 1 -51 15 -128 23
-128 5 0 9 -27 9 -60 0 -33 4 -60 10 -60 6 0 10 -82 10 -225 0 -143 -4 -225
-10 -225 -6 0 -10 -27 -10 -60 0 -33 -4 -60 -9 -60 -8 0 -21 -81 -23 -137 0
-13 -4 -23 -9 -23 -5 0 -9 -16 -9 -35 0 -19 -4 -35 -10 -35 -5 0 -10 -11 -10
-25 0 -14 -4 -25 -10 -25 -5 0 -10 -25 -10 -55 0 -52 1 -55 25 -55 28 0 55 13
98 48 16 12 37 22 48 22 10 0 19 5 19 10 0 6 9 10 19 10 10 0 21 7 25 15 3 8
18 20 33 26 56 20 83 34 83 41 0 4 20 17 44 28 25 11 48 25 51 31 4 5 30 21
59 34 29 13 58 31 65 39 7 8 26 18 42 21 16 4 29 11 29 16 0 5 8 9 18 9 9 0
23 9 29 19 7 11 26 22 43 26 16 4 35 15 40 26 6 10 15 19 21 19 18 0 95 39
108 54 7 8 26 18 42 21 16 4 29 11 29 16 0 5 8 9 18 9 9 0 23 9 30 20 7 11 17
20 23 20 19 0 84 33 92 47 4 7 14 13 21 13 7 0 22 10 34 23 44 46 20 177 -32
177 -8 0 -19 6 -23 13 -4 7 -34 25 -65 41 -32 15 -58 32 -58 37 0 5 -9 9 -20
9 -11 0 -20 4 -20 8 0 4 -16 14 -36 21 -19 7 -38 19 -41 27 -3 8 -14 14 -24
14 -10 0 -19 5 -19 10 0 6 -9 10 -19 10 -11 0 -32 10 -48 23 -15 13 -45 31
-65 40 -20 10 -38 21 -40 25 -2 4 -29 20 -60 36 -32 15 -58 32 -58 37 0 5 -9
9 -20 9 -11 0 -20 5 -20 10 0 6 -7 10 -17 10 -9 0 -30 10 -47 23 -17 13 -52
33 -78 45 -25 12 -49 26 -53 32 -3 5 -26 19 -51 30 -24 11 -44 25 -44 30 0 6
-9 10 -19 10 -11 0 -21 3 -23 8 -1 4 -21 16 -42 27 -68 35 -76 40 -76 47 0 10
-77 10 -84 0z m60 -31 c8 -8 73 -46 454 -264 118 -67 129 -74 255 -147 105
-62 113 -66 270 -155 141 -79 165 -99 165 -135 0 -34 -15 -47 -130 -113 -52
-30 -135 -77 -184 -105 -49 -29 -90 -52 -92 -52 -2 0 -32 -17 -67 -39 -35 -21
-99 -59 -143 -83 -88 -51 -98 -56 -274 -159 -224 -129 -262 -150 -266 -146 -2
2 5 30 15 63 25 79 48 174 61 259 6 39 16 94 21 124 5 30 9 138 9 241 0 103
-4 211 -9 241 -5 30 -15 86 -21 124 -15 92 -44 216 -70 289 -11 33 -20 61 -20
63 0 6 16 3 26 -6z"/>
<path d="M2950 5845 c-6 -8 -27 -20 -46 -27 -19 -6 -34 -16 -34 -20 0 -4 -9
-8 -20 -8 -11 0 -20 -4 -20 -10 0 -5 -17 -17 -37 -26 -21 -10 -46 -24 -57 -33
-16 -14 -42 -29 -156 -88 -19 -10 -36 -21 -38 -25 -2 -5 -12 -8 -23 -8 -10 0
-19 -4 -19 -9 0 -5 -26 -22 -57 -37 -32 -16 -59 -32 -61 -36 -2 -4 -20 -15
-40 -25 -20 -9 -50 -27 -65 -40 -16 -13 -37 -23 -48 -23 -10 0 -19 -4 -19 -10
0 -5 -9 -10 -19 -10 -10 0 -21 -6 -24 -14 -3 -8 -22 -20 -41 -27 -20 -7 -36
-17 -36 -21 0 -4 -9 -8 -20 -8 -11 0 -20 -4 -20 -9 0 -5 -26 -22 -57 -37 -32
-16 -62 -34 -66 -41 -4 -7 -15 -13 -23 -13 -53 0 -76 -136 -31 -178 13 -12 28
-22 35 -22 6 0 15 -6 19 -13 8 -14 73 -47 92 -47 6 0 16 -9 23 -20 7 -11 21
-20 30 -20 10 0 18 -4 18 -9 0 -5 13 -12 29 -16 16 -3 35 -13 42 -21 13 -15
90 -54 108 -54 6 0 15 -9 21 -19 5 -11 24 -22 40 -26 17 -4 36 -15 43 -26 6
-10 20 -19 29 -19 10 0 18 -4 18 -9 0 -5 13 -12 29 -16 16 -3 35 -13 42 -21 7
-8 36 -26 65 -39 29 -13 55 -29 59 -34 3 -6 26 -20 51 -31 24 -11 44 -24 44
-28 0 -7 27 -21 83 -41 15 -6 30 -18 33 -26 4 -8 15 -15 25 -15 10 0 19 -4 19
-10 0 -5 9 -10 19 -10 11 0 33 -11 49 -25 20 -17 42 -25 66 -25 l36 0 0 45 c0
25 -4 45 -10 45 -5 0 -10 11 -10 25 0 14 -4 25 -10 25 -5 0 -7 13 -4 29 4 16
1 32 -5 35 -6 4 -11 23 -11 42 0 19 -4 34 -10 34 -5 0 -10 20 -10 44 0 24 -4
46 -9 48 -5 2 -13 78 -19 170 -12 174 1 509 19 516 5 2 9 21 9 42 0 21 5 42
10 45 6 3 10 19 10 35 0 16 5 32 11 36 6 3 9 19 5 35 -3 16 -1 29 4 29 6 0 10
11 10 25 0 14 5 25 10 25 15 0 12 80 -4 96 -19 18 -60 18 -76 -1z m60 -28 c0
-8 -9 -39 -19 -69 -21 -63 -63 -262 -80 -383 -14 -100 -14 -363 -1 -458 25
-171 50 -294 84 -402 8 -27 14 -51 12 -52 -3 -4 -38 15 -246 136 -175 102
-185 108 -274 159 -44 24 -108 62 -143 83 -35 22 -65 39 -67 39 -2 0 -43 23
-92 52 -49 28 -132 75 -184 105 -115 66 -130 79 -130 113 0 36 24 56 165 135
157 89 165 93 270 155 126 73 137 80 255 147 58 33 179 103 270 156 91 52 168
96 173 96 4 1 7 -5 7 -12z"/>
<path d="M6854 4278 c-6 -7 -21 -35 -34 -63 -14 -27 -28 -52 -31 -55 -3 -3
-10 -16 -14 -30 -7 -22 -139 -217 -207 -305 -30 -39 -223 -233 -268 -269 -68
-54 -288 -206 -299 -206 -6 0 -11 -4 -11 -10 0 -5 -5 -10 -11 -10 -6 0 -37
-12 -70 -27 -53 -25 -59 -31 -59 -59 0 -26 6 -35 33 -47 30 -15 128 -40 202
-53 17 -3 39 -9 50 -14 11 -5 34 -11 50 -14 72 -12 141 -29 157 -37 10 -5 25
-9 33 -9 8 0 23 -4 33 -9 20 -10 109 -30 170 -38 23 -3 42 -9 42 -14 0 -5 15
-9 34 -9 19 0 37 -4 40 -9 3 -5 33 -12 66 -16 33 -4 63 -11 66 -16 3 -5 18 -9
34 -9 16 0 32 -4 35 -10 3 -5 19 -10 36 -10 16 0 37 -4 47 -10 21 -12 103 -30
162 -37 25 -3 50 -9 56 -14 13 -10 47 1 77 24 19 16 25 111 7 122 -5 3 -10 17
-10 30 0 13 -5 27 -10 30 -6 4 -8 10 -6 14 4 7 -24 119 -41 161 -3 8 -17 53
-30 100 -13 47 -28 101 -34 120 -6 19 -15 55 -20 80 -5 25 -14 53 -19 62 -6
10 -10 27 -10 37 0 11 -4 23 -10 26 -5 3 -10 17 -10 31 0 13 -4 32 -10 42 -5
9 -13 37 -18 62 -6 25 -18 68 -27 95 -33 93 -29 80 -39 131 -8 47 -29 110 -39
120 -4 4 -7 21 -8 38 -1 63 -59 120 -85 84z m60 -110 c13 -46 36 -126 51 -178
14 -52 30 -106 34 -120 9 -24 38 -124 157 -540 31 -107 68 -235 82 -283 29
-103 24 -140 -19 -145 -25 -3 -1251 296 -1311 320 -40 15 -35 30 20 58 242
126 443 282 611 475 134 154 199 248 292 423 38 70 39 72 49 72 5 0 20 -37 34
-82z"/>
<path d="M3066 4223 c-4 -16 -13 -55 -21 -88 -7 -33 -19 -78 -25 -100 -6 -22
-16 -67 -22 -100 -5 -33 -14 -62 -18 -65 -4 -3 -10 -21 -13 -40 -3 -19 -11
-53 -17 -75 -7 -22 -17 -68 -23 -102 -6 -35 -15 -63 -19 -63 -4 0 -8 -15 -8
-34 0 -19 -4 -38 -10 -41 -5 -3 -10 -18 -10 -33 0 -15 -7 -45 -15 -67 -8 -22
-14 -57 -15 -77 0 -21 -4 -38 -10 -38 -5 0 -10 -13 -10 -29 0 -17 -4 -33 -10
-36 -5 -3 -10 -21 -10 -39 0 -17 -4 -36 -10 -42 -5 -5 -13 -38 -16 -72 -4 -34
-11 -62 -15 -62 -5 0 -9 -31 -9 -68 0 -62 2 -70 24 -81 31 -17 182 -3 211 19
6 4 26 11 45 15 45 9 100 25 122 36 10 5 27 9 37 9 11 0 23 5 26 10 3 6 17 10
29 10 23 0 109 23 151 40 11 5 31 11 45 14 64 13 129 32 136 39 4 4 20 7 35 7
15 0 30 4 33 9 3 5 23 12 43 15 21 4 53 11 71 17 17 5 49 14 70 20 20 6 46 14
57 19 11 5 40 13 65 19 25 5 73 18 108 27 55 16 62 21 62 44 0 22 -12 31 -95
70 -52 25 -95 48 -95 53 0 4 -4 7 -10 7 -11 0 -157 101 -250 174 -71 56 -198
181 -272 268 -57 67 -200 274 -219 317 -8 17 -17 31 -21 31 -5 0 -8 9 -8 20 0
11 -4 20 -9 20 -5 0 -12 11 -15 25 -5 19 -13 25 -35 25 -23 0 -30 -5 -35 -27z
m100 -105 c77 -138 118 -198 212 -309 191 -227 452 -434 685 -543 21 -10 37
-20 35 -22 -5 -4 -190 -59 -363 -107 -49 -14 -130 -37 -180 -52 -49 -14 -128
-36 -175 -49 -47 -13 -157 -45 -245 -71 -276 -81 -290 -84 -329 -69 -27 10
-19 67 49 339 36 143 70 278 74 300 5 22 43 173 84 335 41 162 77 307 81 323
3 15 8 27 10 27 2 0 30 -46 62 -102z"/>
<path d="M5660 3201 c0 -5 -22 -12 -50 -16 -27 -4 -50 -11 -50 -16 0 -5 -16
-9 -35 -9 -19 0 -35 -4 -35 -10 0 -5 -12 -10 -27 -10 -16 -1 -55 -7 -88 -15
-33 -8 -81 -15 -107 -15 -26 0 -50 -4 -53 -10 -4 -6 -93 -10 -235 -10 -142 0
-231 4 -235 10 -3 6 -27 10 -53 10 -51 1 -207 31 -218 43 -4 4 -19 7 -34 7
-14 0 -31 5 -37 11 -6 6 -47 13 -92 16 l-81 6 0 -46 c0 -25 5 -49 10 -52 6 -3
10 -15 10 -26 0 -10 5 -19 10 -19 6 0 10 -6 10 -13 0 -7 9 -18 20 -24 10 -7
22 -28 26 -48 3 -19 10 -35 15 -35 5 0 9 -5 9 -11 0 -7 9 -20 21 -30 11 -10
18 -23 14 -28 -3 -6 -1 -11 4 -11 6 0 11 -8 11 -18 0 -9 9 -23 20 -30 11 -7
20 -17 20 -23 0 -20 34 -84 52 -97 9 -7 20 -28 24 -47 3 -19 10 -35 15 -35 5
0 9 -6 9 -13 0 -7 9 -18 20 -24 10 -7 22 -28 26 -48 3 -19 10 -35 15 -35 5 0
9 -6 9 -13 0 -7 9 -18 20 -25 12 -7 20 -18 19 -25 -3 -18 12 -51 28 -60 12 -7
27 -34 38 -67 10 -28 22 -47 36 -58 10 -7 21 -28 25 -47 3 -19 10 -35 15 -35
5 0 9 -6 9 -13 0 -7 9 -18 20 -24 10 -7 22 -28 26 -48 3 -19 10 -35 15 -35 5
0 9 -6 9 -13 0 -7 9 -19 19 -27 11 -7 17 -18 14 -23 -3 -5 4 -17 16 -28 27
-25 131 -27 160 -2 11 9 18 21 15 25 -3 5 4 17 15 27 12 10 21 23 21 30 0 6 4
11 9 11 5 0 12 16 15 35 4 20 16 41 26 48 11 6 20 17 20 24 0 7 4 13 9 13 5 0
12 16 15 35 4 19 15 40 25 47 14 11 26 30 36 58 11 33 26 60 38 67 14 9 31 42
28 57 -1 4 7 16 19 26 11 9 20 22 20 29 0 6 4 11 9 11 5 0 12 16 15 35 4 20
16 41 26 48 11 6 20 17 20 24 0 7 4 13 9 13 5 0 12 16 15 35 4 19 15 40 24 47
18 13 52 77 52 97 0 6 9 16 20 23 11 7 20 21 20 30 0 10 5 18 11 18 5 0 7 5 4
11 -4 5 3 18 14 28 12 10 21 23 21 30 0 6 4 11 9 11 5 0 12 16 15 35 4 19 14
40 24 47 26 20 62 96 62 132 0 19 -8 40 -18 49 -20 18 -72 23 -72 8z m50 -57
c0 -21 -49 -113 -188 -349 -19 -33 -73 -127 -120 -210 -46 -82 -88 -154 -92
-160 -5 -5 -24 -37 -43 -70 -118 -206 -162 -284 -180 -315 -75 -135 -119 -135
-194 0 -35 62 -138 242 -193 335 -69 119 -76 132 -150 260 -109 191 -126 219
-153 262 -15 24 -27 45 -27 47 0 2 -22 42 -50 89 -46 78 -64 137 -41 137 5 0
27 -6 49 -14 68 -24 241 -64 348 -81 152 -23 475 -20 629 5 161 27 253 48 350
83 47 17 55 14 55 -19z"/>
</g>
</svg>
