<?xml version="1.0" encoding="iso-8859-1"?>
<!-- Generator: Adobe Illustrator 16.0.0, SVG Export Plug-In . SVG Version: 6.00 Build 0)  -->
<!DOCTYPE svg PUBLIC "-//W3C//DTD SVG 1.1//EN" "http://www.w3.org/Graphics/SVG/1.1/DTD/svg11.dtd">
<svg version="1.1" id="Capa_1" xmlns="http://www.w3.org/2000/svg" xmlns:xlink="http://www.w3.org/1999/xlink" x="0px" y="0px"
	 width="612px" height="612px" viewBox="0 0 612 612" style="enable-background:new 0 0 612 612;" xml:space="preserve">
<g>
	<g id="Shape_11">
		<g>
			<path d="M534.024,194.713c0.163-2.193,0.235-4.366,0.235-6.539c0-53.095-43.222-96.296-96.348-96.296
				c-35.56,0-68.335,20.065-84.922,50.974c-18.606-9.905-39.304-15.107-60.501-15.107c-71.1,0-128.938,57.808-128.938,128.857
				c0,3.05,0.245,6.08,0.459,9.12c-11.354-3.193-23.105-4.999-35.07-4.999C57.839,260.723,0,318.684,0,389.744
				c0,70.039,57.033,128.152,127.256,129.121l252.716,1.256c0.01,0,0.021,0,0.021,0c0.959,0,1.917-0.807,2.836-1.072
				c38.63-11.158,65.611-51.473,65.611-97.061c0-12.486-2.51-24.451-6.957-35.488l102.039,0.816c0.011,0,0.021,0,0.021,0
				c0.959,0,1.918-0.807,2.846-1.072C585.019,375.086,612,334.762,612,289.173C612,242.963,578.521,203.364,534.024,194.713z
				 M378.503,498.342l-251.084-0.592c-58.981-0.816-106.977-49.424-106.977-108.344c0-59.787,48.668-108.424,108.486-108.424
				c21.156,0,41.711,6.141,59.45,17.78c2.591,1.704,5.794,2.122,8.752,1.184c2.948-0.959,5.305-3.183,6.406-6.08
				c11.19-29.164,39.651-48.76,70.825-48.76c41.854,0,75.904,34.03,75.904,75.863c0,4.316-0.418,8.701-1.275,13.445
				c-0.51,2.836,0.194,5.754,1.959,8.049c1.765,2.285,4.406,3.723,7.283,3.947c23.676,1.898,44.19,14.832,56.747,33.418
				c0.521,1.459,1.285,2.766,2.397,3.785c6.712,11.312,10.629,24.43,10.629,38.334C428.007,457.977,407.718,489.15,378.503,498.342z
				 M542.053,366.344l-111.199,0.498c-14.067-19.941-35.489-34.479-60.379-39.324c0.163-2.191,0.234-4.355,0.234-6.527
				c0-53.096-43.221-96.276-96.347-96.276c-35.561,0-68.336,20.106-84.922,51.014c-1.275-0.683-2.632-1.152-3.927-1.785
				c-0.918-5.723-1.51-11.527-1.51-17.341c0-59.787,48.668-108.425,108.486-108.425c21.157,0,41.711,6.141,59.451,17.78
				c2.591,1.693,5.805,2.132,8.752,1.183c2.948-0.959,5.305-3.172,6.406-6.069c11.19-29.165,39.651-48.76,70.825-48.76
				c41.854,0,75.904,34.05,75.904,75.884c0,4.315-0.418,8.732-1.275,13.465c-0.51,2.836,0.194,5.805,1.959,8.1
				c1.765,2.285,4.406,3.825,7.283,4.05c39.12,3.132,69.764,36.529,69.764,75.751C591.558,325.57,571.268,357.152,542.053,366.344z"
				/>
		</g>
	</g>
</g>
<g>
</g>
<g>
</g>
<g>
</g>
<g>
</g>
<g>
</g>
<g>
</g>
<g>
</g>
<g>
</g>
<g>
</g>
<g>
</g>
<g>
</g>
<g>
</g>
<g>
</g>
<g>
</g>
<g>
</g>
</svg>
